<svg width="60" height="36" viewBox="0 0 60 36" fill="none" xmlns="http://www.w3.org/2000/svg">
<path d="M27.9566 17.727C28.6255 17.3049 29.3722 17.0213 30.1526 16.893C30.9128 16.9029 31.6408 17.201 32.1896 17.727L49.3856 34.278C50.5572 35.3787 52.1027 35.9939 53.7102 35.9995C55.3177 36.005 56.8675 35.4005 58.0466 34.308L58.1366 34.224C58.7228 33.6763 59.1907 33.0144 59.5112 32.279C59.8318 31.5437 59.9984 30.7504 60.0006 29.9482C60.0028 29.146 59.8408 28.3518 59.5243 27.6146C59.2079 26.8775 58.7438 26.2129 58.1606 25.662L32.3216 0.860999C31.7312 0.313804 30.9577 0.00676058 30.1526 0C29.3286 0.131319 28.5385 0.423903 27.8276 0.860999L1.83264 25.662C1.25068 26.214 0.787865 26.8792 0.472697 27.6168C0.157529 28.3544 -0.00332053 29.1487 5.19539e-05 29.9508C0.00342444 30.7529 0.170949 31.5458 0.492308 32.2807C0.813667 33.0156 1.28206 33.6769 1.86864 34.224L1.97664 34.308C3.16387 35.3999 4.71952 36.0034 6.33252 35.9979C7.94552 35.9923 9.49697 35.3781 10.6766 34.278L27.9566 17.727Z" fill="white"/>
</svg>
