<svg width="69" height="60" viewBox="0 0 69 60" fill="none" xmlns="http://www.w3.org/2000/svg">
<path d="M66.9737 12.6316H43.6842L36.6821 6.50526C37.4968 5.82842 38.0263 4.8221 38.0263 3.68421C38.0263 1.65263 36.3737 -3.8147e-06 34.3421 -3.8147e-06C32.3105 -3.8147e-06 30.6579 1.65263 30.6579 3.68421C30.6579 4.8221 31.1874 5.82842 32.0011 6.50526L25 12.6316L1.05263 12.6316C0.470526 12.6316 0 13.1032 0 13.6842V58.9474C0 59.5284 0.470526 60 1.05263 60L66.9737 60C67.5558 60 68.0263 59.5284 68.0263 58.9474V13.6842C68.0263 13.6842 67.5558 12.6316 66.9737 12.6316ZM2.10526 16.2253L8.42105 22.5411V50.0905L2.10526 56.4063V16.2253ZM64.4326 14.7368L58.1168 21.0526L9.90947 21.0526L3.59368 14.7368L64.4326 14.7368ZM57.5 40.5463L31.9432 40.6442L19.3137 32.0737C19.1537 31.8168 18.8905 31.6411 18.5905 31.5926C18.2905 31.5432 17.9863 31.6263 17.7516 31.8189L10.5263 37.7695V23.1579L57.5 23.1579V40.5463ZM10.5263 40.4968L18.1642 34.2074L30.7842 42.7632C30.9432 43.0179 31.2032 43.1926 31.5 43.2432C31.5589 43.2526 31.6179 43.2579 31.6768 43.2579C31.9147 43.2579 32.1463 43.1779 32.3347 43.0274L57.5 43.2432V49.4737L10.5263 49.4737V40.4968ZM9.90947 51.5789L58.1168 51.5789L64.4326 57.8947L3.59368 57.8947L9.90947 51.5789ZM59.6053 50.0905V22.541L65.9211 16.2253V56.4063L59.6053 50.0905ZM34.3421 2.10526C35.2126 2.10526 35.9211 2.81368 35.9211 3.68421C35.9211 4.55473 35.2126 5.26315 34.3421 5.26315C33.4716 5.26315 32.7632 4.55473 32.7632 3.68421C32.7632 2.81368 33.4716 2.10526 34.3421 2.10526ZM34.2242 7.35684C34.2642 7.35789 34.3021 7.36842 34.3421 7.36842C34.3821 7.36842 34.42 7.35789 34.46 7.35684L40.4884 12.6316H28.1958L34.2242 7.35684Z" fill="#333333"/>
</svg>
