<svg width="50" height="50" viewBox="0 0 50 50" fill="none" xmlns="http://www.w3.org/2000/svg">
<path fill-rule="evenodd" clip-rule="evenodd" d="M15.1286 7.34286C10.9233 7.34286 7.51429 10.5856 7.51429 14.5857V32.4143C7.51429 36.4143 10.9233 39.6571 15.1286 39.6571H33.8714C38.0766 39.6571 41.4857 36.4143 41.4857 32.4143V30.1857C41.4857 29.2626 42.2724 28.5143 43.2429 28.5143C44.2133 28.5143 45 29.2626 45 30.1857V32.4143C45 38.2607 40.0177 43 33.8714 43H15.1286C8.98244 43 4 38.2607 4 32.4143V14.5857C4 8.73939 8.98244 4 15.1286 4H19.8143C20.7847 4 21.5714 4.74833 21.5714 5.67143C21.5714 6.59453 20.7847 7.34286 19.8143 7.34286H15.1286Z" fill="#565655"/>
<path fill-rule="evenodd" clip-rule="evenodd" d="M33.6984 7.08726C34.2395 6.89237 34.8527 7.03063 35.2406 7.435L43.6406 16.1941C44.1198 16.6937 44.1198 17.4523 43.6406 17.9519L35.2406 26.711C34.8527 27.1153 34.2395 27.2535 33.6984 27.0587C33.1573 26.8638 32.8 26.3761 32.8 25.8321V21.9091C29.0874 22.0118 26.4522 22.5459 24.3923 23.6457C22.1133 24.8623 20.3509 26.8737 18.6676 30.2437C18.3892 30.8011 17.7358 31.1023 17.0956 30.9684C16.4554 30.8346 16 30.3015 16 29.6861C16.0001 23.165 17.8136 18.7034 21.2011 15.9107C24.2389 13.4063 28.3138 12.4387 32.8 12.2797V8.31392C32.8 7.76991 33.1573 7.28217 33.6984 7.08726Z" fill="#565655"/>
</svg>
